<svg xmlns="http://www.w3.org/2000/svg" id="katman_2" viewBox="0 0 218.77 43.33">
  <defs>
    
  </defs>
  <g id="katman_1">
    <path d="M29.34,28.77c-.58.96.95,1.98,3.31,2.65h10.88c2.29-.65,3.77-1.66,3.27-2.65-.23-.46-.34-.64-.53-.64-.55,0-1.76,1.41-8.31,1.41s-7.53-1.32-8.07-1.32c-.18,0-.3.15-.55.55Z" fill="rgb(251, 203, 165)"/>
    <path d="M53.53,32.12l-5.51-16.29c-.02-.07-.05-.13-.08-.2-.6-1.19-.54-1.88-3.39-3.44-2.18-1.2-5.05-1.35-6.5-1.35h0c-1.45,0-4.32.16-6.5,1.35-2.85,1.56-2.79,2.25-3.39,3.44-.03.06-.06.13-.08.2l-5.47,16.16c-.03.09-.07.17-.11.25-.11.2-.19.41-.24.63-.06.26-.09.56-.09.89,0,.79.36,1.44,1.09,1.96.73.52,1.65.78,2.78.78.88,0,1.65-.22,2.31-.66.66-.44,1.19-1.07,1.58-1.91l.45-.92c.35-.72.11-1.6-.57-2.04-.49-.31-.85-.65-1.06-1.03-.29-.51-.28-1.06.02-1.55.24-.39.54-.88,1.14-.88.27,0,.5.1.79.23.48.21,1.38.61,3.3.86.96.12,1.81-.62,1.81-1.58v-2.03c0-.07.01-.17,0-.3,0-.14-.04-.55-.28-.94-.1-.17-.21-.27-.25-.31-.38-.4-.79-1.34-.81-2.38-.02-1.15.46-1.96.64-2.26.12-.2.29-.48.58-.75.83-.79,1.91-.89,2.38-.9.47.01,1.55.11,2.38.9.29.28.46.56.58.75.18.3.66,1.11.64,2.26-.02,1.04-.43,1.98-.81,2.38-.04.04-.14.14-.25.31-.25.4-.27.8-.28.94,0,.13,0,.23,0,.3v2c0,.97.86,1.71,1.82,1.58,1.92-.27,2.84-.69,3.34-.91.3-.14.54-.24.81-.24h0c.65,0,.92.54,1.16,1.02.25.51.22,1.07-.1,1.58-.22.36-.59.69-1.06.98-.67.42-.88,1.31-.53,2.02l.43.88c.39.83.92,1.47,1.58,1.91.66.44,1.43.66,2.31.66,1.13,0,2.05-.26,2.78-.78.73-.52,1.09-1.17,1.09-1.96,0-.33-.03-.63-.09-.89-.06-.26-.16-.51-.31-.75Z" fill="rgb(101, 166, 219)"/>
    <path d="M25.67,6.91c0-1.18-.49-2.06-1.46-2.64s-2.41-.86-4.32-.86H5.78c-1.94,0-3.39.29-4.34.88s-1.43,1.46-1.43,2.63.47,2.01,1.41,2.58,2.39.85,4.37.85h2.99v20.87c0,1.78.34,3.11,1.02,3.97s1.69,1.3,3.05,1.3,2.39-.43,3.06-1.29c.67-.86,1-2.19,1-3.98V10.35h3.01c1.94,0,3.39-.28,4.34-.85s1.43-1.43,1.43-2.58Z" fill="rgb(101, 166, 219)"/>
    <path d="M98.3,32.19l-3.96-17.15c-.36-1.49-.99-2.55-1.88-3.17-.9-.62-2.18-.93-3.84-.93-1.45,0-2.65.28-3.6.85-.95.56-1.6,1.39-1.96,2.49l-4.67,12.58c-.17.55-.61.58-.85.02l-4.96-12.57c-.41-1.14-1.07-1.99-1.99-2.54-.92-.55-2.15-.83-3.68-.83s-2.83.3-3.7.89c-.86.59-1.47,1.6-1.81,3.01l-4.36,17-.21.9s-.01.07-.02.11l-.07.7c0,.91.37,1.64,1.1,2.17s1.69.8,2.86.8,2.16-.29,2.85-.88c.69-.59,1.16-1.52,1.41-2.8l2.17-11.32c.17-.87,1.39-.96,1.67-.12l4.2,12.26c.39,1.05.94,1.79,1.65,2.22s1.75.64,3.12.64c.86,0,1.57-.08,2.1-.23.54-.15.97-.41,1.3-.78.54-.58,1.28-2.11,2.24-4.57.77-1.98,1.86-5.09,3.28-9.34.29-.86,1.53-.77,1.68.12l1.98,11.47c.23,1.13.67,1.97,1.33,2.51.66.54,1.55.81,2.68.81,1.26,0,2.26-.27,3-.8s1.11-1.26,1.11-2.17l-.05-.62-.15-.74Z" fill="rgb(101, 166, 219)"/>
    <path d="M120.31,18.37c1.52-.63,2.63-1.46,3.34-2.48.71-1.02,1.06-2.35,1.06-3.96,0-2.56-.97-4.55-2.92-5.98s-4.68-2.14-8.19-2.14h-6.68c-2.06,0-3.5.38-4.34,1.13-.84.76-1.26,2.12-1.26,4.1v22.76c0,1.81.39,3.05,1.16,3.7.77.66,2.22.99,4.34.99h8.03c4,0,7.11-.87,9.34-2.6s3.34-4.14,3.34-7.23c0-2.12-.62-3.91-1.86-5.34s-3.03-2.42-5.36-2.94ZM109.45,10.13h3.3c1.26,0,2.26.29,3,.88s1.11,1.37,1.11,2.36-.38,1.71-1.13,2.29-1.71.88-2.89.88h-3.4v-6.4ZM117.58,29.13c-.95.64-2.31.95-4.07.95h-4.06v-7.34h3.92c1.91,0,3.33.3,4.26.91s1.39,1.52,1.39,2.75-.48,2.09-1.43,2.73Z" fill="rgb(101, 166, 219)"/>
    <path d="M155.7,25.06c.55-.44.82-1.2.82-2.28,0-3.34-1.23-6.17-3.7-8.5-2.46-2.33-5.52-3.49-9.18-3.49s-6.95,1.23-9.48,3.7-3.81,5.55-3.81,9.25,1.31,6.74,3.92,9.18c2.61,2.44,5.87,3.66,9.76,3.66,3.2,0,5.98-.63,8.34-1.89s3.55-2.66,3.55-4.2c0-.82-.29-1.5-.87-2.02-.58-.52-1.34-.79-2.29-.79-.42,0-1.55.39-3.36,1.18s-3.47,1.18-4.96,1.18c-1.73,0-3.12-.39-4.16-1.17s-1.65-1.83-1.81-3.16h14.12c1.52,0,2.55-.22,3.1-.66ZM138.38,20.99c.29-1.33.92-2.38,1.87-3.15.95-.77,2.1-1.16,3.44-1.16s2.5.41,3.5,1.23c.51.45.9.93,1.19,1.45s.43,1.06.43,1.63h-10.42Z" fill="rgb(101, 166, 219)"/>
    <path d="M173.46,10.85c-1.21,0-2.33.17-3.36.52-1.04.34-1.99.86-2.85,1.55v-6.62c0-1.8-.33-3.13-1-4-.67-.87-1.66-1.3-2.96-1.3s-2.33.44-2.97,1.31c-.64.88-.97,2.2-.97,3.98v24.82c0,1.8.33,3.12.99,3.98.66.86,1.64,1.29,2.95,1.29.77,0,1.46-.2,2.09-.59.63-.4,1.19-.98,1.68-1.74.8.82,1.74,1.44,2.81,1.85,1.08.41,2.28.62,3.6.62,3.3,0,6.14-1.24,8.54-3.73,2.4-2.48,3.6-5.47,3.6-8.96,0-3.71-1.17-6.8-3.52-9.28-2.35-2.48-5.22-3.71-8.61-3.71ZM176.06,28.08c-.98,1.12-2.23,1.68-3.74,1.68s-2.79-.55-3.76-1.66c-.97-1.11-1.46-2.57-1.46-4.4s.49-3.31,1.47-4.44c.98-1.14,2.23-1.71,3.74-1.71s2.79.57,3.76,1.72c.97,1.14,1.46,2.62,1.46,4.43s-.49,3.25-1.47,4.38Z" fill="rgb(101, 166, 219)"/>
    <path d="M210.36,27.7c-.42,0-1.55.39-3.36,1.18s-3.47,1.18-4.96,1.18c-1.73,0-3.12-.39-4.16-1.17s-1.65-1.83-1.81-3.16h14.12c1.52,0,2.55-.22,3.1-.66.55-.44.82-1.2.82-2.28,0-3.34-1.23-6.17-3.7-8.5-2.46-2.33-5.52-3.49-9.18-3.49s-6.95,1.23-9.48,3.7-3.81,5.55-3.81,9.25,1.31,6.74,3.92,9.18c2.61,2.44,5.87,3.66,9.76,3.66,3.2,0,5.98-.63,8.34-1.89s3.55-2.66,3.55-4.2c0-.82-.29-1.5-.87-2.02-.58-.52-1.34-.79-2.29-.79ZM197.85,17.83c.95-.77,2.1-1.16,3.44-1.16s2.5.41,3.5,1.23c.51.45.9.93,1.19,1.45s.43,1.06.43,1.63h-10.42c.29-1.33.92-2.38,1.87-3.15Z" fill="rgb(101, 166, 219)"/>
    <path d="M46.79,28.77c-.89-1.79,0,.77-8.85.77s-7.65-2.36-8.62-.77c-.84,1.37,2.66,2.88,6.72,3.28-.02.07-.04.14-.05.22-2.14.83-3.67,2.9-3.67,5.34,0,3.16,2.56,5.73,5.73,5.73s5.73-2.56,5.73-5.73c0-2.44-1.52-4.51-3.67-5.34-.01-.07-.03-.15-.05-.22,4.03-.38,7.44-1.84,6.72-3.28ZM42.05,37.6c0,2.2-1.79,3.99-3.99,3.99s-3.99-1.79-3.99-3.99c0-1.67,1.04-3.11,2.5-3.7.33.3.76.48,1.23.48h.5c.48,0,.91-.19,1.23-.48,1.47.59,2.5,2.02,2.5,3.7Z" fill="rgb(246, 171, 120)"/>
    <path d="M214.99,3.6c-1.86-.68-3.85-.33-5.34.76-.44-1.79-1.74-3.34-3.6-4.02-2.97-1.08-6.26.45-7.34,3.42-.29.79-.31,2.38-.12,4.29.91-.14,1.84-.22,2.81-.22,4.43,0,8.21,1.45,11.24,4.31.94.89,1.72,1.85,2.38,2.87,1.74-1.61,3.07-3.14,3.41-4.07,1.08-2.97-.45-6.26-3.42-7.34Z" fill="rgb(246, 171, 120)"/>
  </g>
</svg>